<svg aria-hidden="true" style="position: absolute; width: 0; height: 0; overflow: hidden;" version="1.1" xmlns="http://www.w3.org/2000/svg" xmlns:xlink="http://www.w3.org/1999/xlink">
<defs>
<symbol id="icon-burger" viewBox="0 0 32 32">
<path fill="none" stroke="#fafafa" style="stroke: var(--color1, #fafafa)" stroke-linejoin="round" stroke-linecap="round" stroke-miterlimit="4" stroke-width="2.2857" d="M4 11.333h24M4 20.667h24"></path>
</symbol>
<symbol id="icon-email" viewBox="0 0 166 32">
<path fill="none" stroke="#fafafa" style="stroke: var(--color1, #fafafa)" stroke-linejoin="miter" stroke-linecap="butt" stroke-miterlimit="4" stroke-width="0.8649" d="M16 0.432h140.973c8.598 0 15.568 6.97 15.568 15.568s-6.97 15.568-15.568 15.568h-140.973c-8.598 0-15.568-6.97-15.568-15.568s6.97-15.568 15.568-15.568z"></path>
<path fill="#fafafa" style="fill: var(--color1, #fafafa)" d="M11.287 20.757v-8.924h1.465v8.924h-1.465zM14.332 20.757v-8.924h1.465v8.924h-1.465zM18.599 20.757l-1.344-1.344v-3.632l1.344-1.356h3.172l1.344 1.356v3.632l-1.344 1.344h-3.172zM19.253 19.631l1.865-0.012 0.533-0.533v-2.991l-0.533-0.533h-1.865l-0.533 0.533v2.991l0.533 0.545zM25.366 23.021l1.114-2.627h-0.557l-2.446-5.969h1.61l1.695 4.528h0.291l1.695-4.528h1.61l-3.536 8.597h-1.477zM32.080 20.757l-1.344-1.344v-3.632l1.344-1.356h2.264l0.932 0.932v-3.523h1.465v8.924h-1.465v-0.92l-0.932 0.92h-2.264zM33.981 19.619l1.296-1.271v-1.501l-1.296-1.283h-1.247l-0.533 0.533v2.991l0.533 0.533h1.247zM38.445 13.734v-1.514h1.465v1.514h-1.465zM37.041 23.021v-1.199h0.908l0.496-0.521v-6.877h1.465v7.398l-1.235 1.199h-1.635zM42.651 20.757l-1.344-1.344v-3.632l1.344-1.356h2.906l1.344 1.356v2.349h-4.129v0.896l0.533 0.533h3.487v1.199h-4.141zM42.772 17.003h2.664v-0.908l-0.533-0.533h-1.598l-0.533 0.533v0.908zM48.388 20.757v-5.194h-0.496v-1.138h0.496v-1.38l1.211-1.211h1.647v1.199h-0.908l-0.484 0.521v0.872h1.114v1.138h-1.114v5.194h-1.465zM51.953 20.757v-5.194h-0.496v-1.138h0.496v-1.38l1.211-1.211h1.647v1.199h-0.908l-0.484 0.521v0.872h1.114v1.138h-1.114v5.194h-1.465zM56.705 20.757l-1.344-1.344v-3.632l1.344-1.356h2.906l1.344 1.356v2.349h-4.129v0.896l0.533 0.533h3.487v1.199h-4.141zM56.826 17.003h2.664v-0.908l-0.533-0.533h-1.598l-0.533 0.533v0.908zM62.405 20.757v-6.333h1.465v1.126l1.138-1.126h1.429v1.465h-1.417l-1.15 1.15v3.717h-1.465zM67.179 20.757v-1.199h3.318l0.484-0.496v-0.412l-0.569-0.569h-2.349l-1.235-1.211v-1.223l1.211-1.223h3.729v1.199h-3.003l-0.472 0.472v0.279l0.545 0.545h2.373l1.235 1.211v1.417l-1.211 1.211h-4.056zM74.886 20.757l-1.344-1.344v-3.632l1.344-1.356h3.172l1.344 1.356v3.632l-1.344 1.344h-3.172zM75.539 19.631l1.865-0.012 0.533-0.533v-2.991l-0.533-0.533h-1.865l-0.533 0.533v2.991l0.533 0.545zM80.858 20.757v-6.333h1.465v1.126l1.138-1.126h2.264l1.344 1.356v4.976h-1.465v-4.637l-0.509-0.557h-1.283l-1.489 1.477v3.717h-1.465zM90.281 23.021l-1.877-1.877v-7.434l1.877-1.877h7.495l1.889 1.877v5.497l-1.223 1.211h-2.046l-0.848-0.848-0.908 0.848h-2.095l-1.344-1.344v-3.293l1.344-1.356h1.865l0.775 0.751v-0.751h1.465v4.347l0.448 0.448h0.642l0.46-0.448v-4.492l-1.259-1.247h-5.824l-1.247 1.247v6.296l1.247 1.247h6.793l1.126-1.114 0.92 0.932-1.392 1.38h-8.282zM94.228 19.219l0.957-0.86v-1.744l-1.017-0.993h-0.835l-0.666 0.666v2.264l0.666 0.666h0.896zM101.606 23.021v-1.199h3.548l0.545-0.533-0.012-1.465-0.932 0.932h-2.264l-1.344-1.344v-3.632l1.344-1.356h2.264l0.932 0.932v-0.932h1.465v7.253l-1.344 1.344h-4.201zM104.391 19.619l1.296-1.283v-1.489l-1.296-1.283h-1.247l-0.533 0.533v2.991l0.533 0.533h1.247zM108.723 20.757v-6.333h1.465v1.126l1.138-1.126h2.264l1.126 1.138 1.138-1.138h2.264l1.344 1.356v4.976h-1.465v-4.637l-0.509-0.557h-1.283l-1.271 1.271v3.923h-1.465v-4.637l-0.509-0.557h-1.283l-1.489 1.477v3.717h-1.465zM121.778 20.757l-1.344-1.344v-1.368l1.344-1.356h3.063v-0.533l-0.533-0.533h-3.039v-1.199h3.693l1.344 1.356v4.976h-1.465v-0.92l-0.932 0.92h-2.131zM122.432 19.631l1.138-0.012 1.271-1.271v-0.521h-2.409l-0.533 0.533v0.727l0.533 0.545zM127.819 13.734v-1.514h1.465v1.514h-1.465zM127.819 20.757v-6.333h1.465v6.333h-1.465zM130.864 20.757v-8.924h1.465v8.924h-1.465zM133.849 20.757v-1.514h1.465v1.514h-1.465zM138.178 20.757l-1.344-1.344v-3.632l1.344-1.356h3.027l1.211 1.187v1.187h-1.465v-0.702l-0.533-0.533h-1.586l-0.533 0.533v2.93l0.533 0.533h3.536v1.199h-4.189zM144.853 20.757l-1.344-1.344v-3.632l1.344-1.356h3.172l1.344 1.356v3.632l-1.344 1.344h-3.172zM145.507 19.631l1.865-0.012 0.533-0.533v-2.991l-0.533-0.533h-1.865l-0.533 0.533v2.991l0.533 0.545zM150.825 20.757v-6.333h1.465v1.126l1.138-1.126h2.264l1.126 1.138 1.138-1.138h2.264l1.344 1.356v4.976h-1.465v-4.637l-0.509-0.557h-1.283l-1.271 1.271v3.923h-1.465v-4.637l-0.509-0.557h-1.283l-1.489 1.477v3.717h-1.465z"></path>
</symbol>
<symbol id="icon-facebook" viewBox="0 0 32 32">
<path fill="none" stroke="#fafafa" style="stroke: var(--color1, #fafafa)" stroke-linejoin="miter" stroke-linecap="butt" stroke-miterlimit="4" stroke-width="0.8649" d="M16 0.432c8.598 0 15.568 6.97 15.568 15.568s-6.97 15.568-15.568 15.568c-8.598 0-15.568-6.97-15.568-15.568s6.97-15.568 15.568-15.568z"></path>
<path fill="#fafafa" style="fill: var(--color1, #fafafa)" d="M9.185 20.757v-8.924h5.969v1.38h-4.456v2.337h3.923v1.38h-3.923v3.826h-1.514zM16.002 20.757v-8.924h5.134l1.344 1.344v2.095l-0.581 0.654 0.981 0.969v2.518l-1.344 1.344h-5.533zM17.515 15.417h2.918l0.521-0.605v-1.114l-0.533-0.533h-2.906v2.252zM17.515 19.425h3.305l0.533-0.533v-1.61l-0.533-0.533h-3.305v2.676z"></path>
</symbol>
<symbol id="icon-githab" viewBox="0 0 32 32">
<path fill="none" stroke="#fafafa" style="stroke: var(--color1, #fafafa)" stroke-linejoin="miter" stroke-linecap="butt" stroke-miterlimit="4" stroke-width="0.8649" d="M16 0.432c8.598 0 15.568 6.97 15.568 15.568s-6.97 15.568-15.568 15.568c-8.598 0-15.568-6.97-15.568-15.568s6.97-15.568 15.568-15.568z"></path>
<path fill="#fafafa" style="fill: var(--color1, #fafafa)" d="M8.953 20.757l-1.308-1.344v-6.236l1.344-1.344h4.432l1.235 1.223-0.969 0.969-0.872-0.86h-3.124l-0.533 0.533 0.012 5.194 0.521 0.533h2.325l1.392-1.247v-0.993h-2.034v-1.332h3.293v4.904h-1.259v-0.92l-1.017 0.92h-3.439zM16.36 20.757v-8.924h1.514v3.584h3.911v-3.584h1.514v8.924h-1.514v-4.008h-3.911v4.008h-1.514z"></path>
</symbol>
<symbol id="icon-instagram" viewBox="0 0 35 32">
<path fill="none" stroke="#fafafa" style="stroke: var(--color1, #fafafa)" stroke-linejoin="miter" stroke-linecap="butt" stroke-miterlimit="4" stroke-width="0.8649" d="M16 0.432h2.595c8.598 0 15.568 6.97 15.568 15.568s-6.97 15.568-15.568 15.568h-2.595c-8.598 0-15.568-6.97-15.568-15.568s6.97-15.568 15.568-15.568z"></path>
<path fill="#fafafa" style="fill: var(--color1, #fafafa)" d="M11.105 20.757v-1.38h0.908v-6.163h-0.908v-1.38h3.33v1.38h-0.908v6.163h0.908v1.38h-3.33zM16.947 20.757l-1.308-1.344v-6.236l1.344-1.344h4.432l1.235 1.223-0.969 0.969-0.872-0.86h-3.124l-0.533 0.533 0.012 5.194 0.521 0.533h2.325l1.392-1.247v-0.993h-2.034v-1.332h3.293v4.904h-1.259v-0.92l-1.017 0.92h-3.439z"></path>
</symbol>
<symbol id="icon-youtube" viewBox="0 0 32 32">
<path fill="none" stroke="#fafafa" style="stroke: var(--color1, #fafafa)" stroke-linejoin="miter" stroke-linecap="butt" stroke-miterlimit="4" stroke-width="0.8649" d="M16 0.432c8.598 0 15.568 6.97 15.568 15.568s-6.97 15.568-15.568 15.568c-8.598 0-15.568-6.97-15.568-15.568s6.97-15.568 15.568-15.568z"></path>
<path fill="#fafafa" style="fill: var(--color1, #fafafa)" d="M11.449 20.757v-3.281l-3.112-5.642h1.731l1.998 3.899h0.291l1.998-3.899h1.731l-3.112 5.642v3.281h-1.526zM18.761 20.757v-7.543h-2.482v-1.38h6.478v1.38h-2.482v7.543h-1.514z"></path>
</symbol>
<symbol id="icon-success-x" viewBox="0 0 32 32">
<path fill="none" stroke="#fafafa" style="stroke: var(--color1, #fafafa)" stroke-linejoin="round" stroke-linecap="round" stroke-miterlimit="4" stroke-width="2.6667" d="M24 8l-16 16"></path>
<path fill="none" stroke="#fafafa" style="stroke: var(--color1, #fafafa)" stroke-linejoin="round" stroke-linecap="round" stroke-miterlimit="4" stroke-width="2.6667" d="M8 8l16 16"></path>
</symbol>
<symbol id="icon-art" viewBox="0 0 32 32">
<path fill="#" style="fill: var(--color1, )" d="M6.667 0h18.667c3.682 0 6.667 2.985 6.667 6.667v18.667c0 3.682-2.985 6.667-6.667 6.667h-18.667c-3.682 0-6.667-2.985-6.667-6.667v-18.667c0-3.682 2.985-6.667 6.667-6.667z"></path>
<path fill="none" stroke="#fafafa" style="stroke: var(--color2, #fafafa)" stroke-linejoin="round" stroke-linecap="round" stroke-miterlimit="4" stroke-width="1.3333" d="M16.519 18l-2.519-2.518"></path>
<path fill="none" stroke="#fafafa" style="stroke: var(--color2, #fafafa)" stroke-linejoin="round" stroke-linecap="round" stroke-miterlimit="4" stroke-width="1.3333" d="M9.333 22.667c1.333 0 3.072 0.228 3.983-0.683s0.911-2.389 0-3.3c-0.911-0.911-2.389-0.911-3.3 0s0 2.65-0.683 3.983z"></path>
<path fill="none" stroke="#fafafa" style="stroke: var(--color2, #fafafa)" stroke-linejoin="round" stroke-linecap="round" stroke-miterlimit="4" stroke-width="1.3333" d="M13.333 18.667c-0.328-0.328-0.491-0.491-0.584-0.663-0.222-0.411-0.213-0.909 0.025-1.311 0.099-0.168 0.269-0.325 0.609-0.64l6.579-6.091c0.579-0.537 1.479-0.519 2.038 0.039s0.576 1.458 0.039 2.038l-6.091 6.579c-0.315 0.34-0.472 0.51-0.64 0.609-0.403 0.238-0.9 0.247-1.311 0.025-0.172-0.093-0.335-0.256-0.663-0.584z"></path>
</symbol>
<symbol id="icon-com" viewBox="0 0 32 32">
<path fill="" style="fill: var(--color1, )" d="M6.667 0h18.667c3.682 0 6.667 2.985 6.667 6.667v18.667c0 3.682-2.985 6.667-6.667 6.667h-18.667c-3.682 0-6.667-2.985-6.667-6.667v-18.667c0-3.682 2.985-6.667 6.667-6.667z"></path>
<path fill="none" stroke="#fafafa" style="stroke: var(--color2, #fafafa)" stroke-linejoin="round" stroke-linecap="round" stroke-miterlimit="4" stroke-width="1.3333" d="M12.063 15.486c-0.041-0.267-0.063-0.541-0.063-0.819 0-2.946 2.403-5.333 5.368-5.333s5.368 2.388 5.368 5.333c0 0.665-0.123 1.302-0.347 1.89-0.047 0.122-0.070 0.183-0.080 0.231s-0.015 0.080-0.016 0.129c-0.001 0.049 0.005 0.102 0.019 0.21l0.268 2.18c0.029 0.236 0.044 0.354 0.004 0.44-0.034 0.075-0.095 0.135-0.171 0.168-0.087 0.037-0.204 0.020-0.44-0.014l-2.123-0.311c-0.111-0.016-0.166-0.024-0.217-0.024s-0.084 0.004-0.133 0.014c-0.049 0.010-0.113 0.034-0.239 0.081-0.589 0.221-1.227 0.341-1.894 0.341-0.279 0-0.553-0.021-0.82-0.062M13.088 22.667c1.977 0 3.579-1.642 3.579-3.667s-1.602-3.667-3.579-3.667c-1.977 0-3.579 1.642-3.579 3.667 0 0.407 0.065 0.799 0.184 1.164 0.051 0.155 0.076 0.232 0.084 0.285 0.009 0.055 0.010 0.086 0.007 0.142-0.003 0.053-0.016 0.114-0.043 0.234l-0.408 1.841 1.997-0.273c0.109-0.015 0.163-0.022 0.211-0.022 0.050 0 0.077 0.003 0.126 0.013 0.047 0.009 0.116 0.034 0.255 0.083 0.366 0.129 0.758 0.199 1.166 0.199z"></path>
</symbol>
<symbol id="icon-exp" viewBox="0 0 32 32">
<path fill="" style="fill: var(--color1, )" d="M6.667 0h18.667c3.682 0 6.667 2.985 6.667 6.667v18.667c0 3.682-2.985 6.667-6.667 6.667h-18.667c-3.682 0-6.667-2.985-6.667-6.667v-18.667c0-3.682 2.985-6.667 6.667-6.667z"></path>
<path fill="none" stroke="#fafafa" style="stroke: var(--color2, #fafafa)" stroke-linejoin="round" stroke-linecap="round" stroke-miterlimit="4" stroke-width="1.3333" d="M21.333 22c0-0.93 0-1.396-0.115-1.774-0.259-0.852-0.926-1.519-1.778-1.778-0.379-0.115-0.844-0.115-1.774-0.115h-3.333c-0.93 0-1.396 0-1.774 0.115-0.852 0.259-1.519 0.926-1.778 1.778-0.115 0.379-0.115 0.844-0.115 1.774"></path>
<path fill="none" stroke="#fafafa" style="stroke: var(--color2, #fafafa)" stroke-linejoin="round" stroke-linecap="round" stroke-miterlimit="4" stroke-width="1.3333" d="M16 16c1.657 0 3-1.343 3-3s-1.343-3-3-3c-1.657 0-3 1.343-3 3s1.343 3 3 3z"></path>
</symbol>
<symbol id="icon-urg" viewBox="0 0 32 32">
<path fill="" style="fill: var(--color1, )" d="M6.667 0h18.667c3.682 0 6.667 2.985 6.667 6.667v18.667c0 3.682-2.985 6.667-6.667 6.667h-18.667c-3.682 0-6.667-2.985-6.667-6.667v-18.667c0-3.682 2.985-6.667 6.667-6.667z"></path>
<path fill="none" stroke="#fafafa" style="stroke: var(--color2, #fafafa)" stroke-linejoin="round" stroke-linecap="round" stroke-miterlimit="4" stroke-width="1.3333" d="M20.108 9.333h-8.217c-0.308 0-0.558 0.25-0.558 0.558 0 1.777 0.706 3.481 1.962 4.737l0.813 0.813c0.081 0.081 0.121 0.121 0.15 0.16 0.176 0.236 0.176 0.561 0 0.797-0.029 0.039-0.069 0.079-0.15 0.16l-0.813 0.813c-1.256 1.256-1.962 2.96-1.962 4.737 0 0.308 0.25 0.558 0.558 0.558h8.217c0.308 0 0.558-0.25 0.558-0.558 0-1.777-0.706-3.481-1.962-4.737l-0.813-0.813c-0.081-0.081-0.121-0.121-0.15-0.16-0.176-0.236-0.176-0.561 0-0.797 0.029-0.039 0.069-0.079 0.15-0.16l0.813-0.813c1.256-1.256 1.962-2.96 1.962-4.737 0-0.308-0.25-0.558-0.558-0.558z"></path>
</symbol>
<symbol id="icon-r-arr" viewBox="0 0 32 32">
<path stroke-linejoin="miter" stroke-linecap="butt" stroke-miterlimit="4" stroke-width="0.4706" d="M16 0.235c8.707 0 15.765 7.058 15.765 15.765s-7.058 15.765-15.765 15.765c-8.707 0-15.765-7.058-15.765-15.765s7.058-15.765 15.765-15.765z"></path>
<path stroke-linejoin="round" stroke-linecap="round" stroke-miterlimit="4" stroke-width="0.9412" d="M10.98 16h10.039"></path>
<path stroke-linejoin="round" stroke-linecap="round" stroke-miterlimit="4" stroke-width="0.9412" d="M17.255 12.235l3.765 3.765-3.765 3.765"></path>
</symbol>
<symbol id="icon-l-arr" viewBox="0 0 32 32">
<path stroke-linejoin="miter" stroke-linecap="butt" stroke-miterlimit="4" stroke-width="0.4706" d="M16 31.765c-8.707 0-15.765-7.058-15.765-15.765s7.058-15.765 15.765-15.765c8.707 0 15.765 7.058 15.765 15.765s-7.058 15.765-15.765 15.765z"></path>
<path stroke-linejoin="round" stroke-linecap="round" stroke-miterlimit="4" stroke-width="0.9412" d="M21.020 16h-10.039"></path>
<path stroke-linejoin="round" stroke-linecap="round" stroke-miterlimit="4" stroke-width="0.9412" d="M14.745 19.765l-3.765-3.765 3.765-3.765"></path>
</symbol>
<symbol id="icon-down" viewBox="0 0 32 32">
<path fill="none" stroke="#fafafa" style="stroke: var(--color1, #fafafa)" stroke-linejoin="miter" stroke-linecap="butt" stroke-miterlimit="4" stroke-width="0.7619" d="M16 0.381c8.626 0 15.619 6.993 15.619 15.619s-6.993 15.619-15.619 15.619c-8.626 0-15.619-6.993-15.619-15.619s6.993-15.619 15.619-15.619z"></path>
<path fill="none" stroke="#fafafa" style="stroke: var(--color1, #fafafa)" stroke-linejoin="miter" stroke-linecap="butt" stroke-miterlimit="4" stroke-width="1.5238" d="M19.81 14.095l-3.81 3.81-3.81-3.81"></path>
</symbol>
<symbol id="icon-up" viewBox="0 0 32 32">
<path fill="none" stroke="#fafafa" style="stroke: var(--color1, #fafafa)" stroke-linejoin="miter" stroke-linecap="butt" stroke-miterlimit="4" stroke-width="0.7619" d="M16 31.619c8.626 0 15.619-6.993 15.619-15.619s-6.993-15.619-15.619-15.619c-8.626 0-15.619 6.993-15.619 15.619s6.993 15.619 15.619 15.619z"></path>
<path fill="none" stroke="#fafafa" style="stroke: var(--color1, #fafafa)" stroke-linejoin="miter" stroke-linecap="butt" stroke-miterlimit="4" stroke-width="1.5238" d="M19.81 17.905l-3.81-3.81-3.81 3.81"></path>
</symbol>
<symbol id="arrow-right" viewBox="0 0 24 24"> 
<path d="M14.561 20.561l7.5-7.5c0.586-0.586 0.586-1.536 0-2.121l-7.5-7.5c-0.586-0.586-1.536-0.586-2.121 0s-0.586 1.536 0 2.121l4.939 4.939h-14.379c-0.828 0-1.5 0.672-1.5 1.5s0.672 1.5 1.5 1.5h14.379l-4.939 4.939c-0.293 0.293-0.439 0.677-0.439 1.061s0.146 0.768 0.439 1.061c0.586 0.586 1.536 0.586 2.121 0z"></path> 
</symbol> 
<symbol id="arrow-left" viewBox="0 0 24 24"> 
<path d="M9.439 20.561l-7.5-7.5c-0.586-0.586-0.586-1.536 0-2.121l7.5-7.5c0.586-0.586 1.536-0.586 2.121 0s0.586 1.536 0 2.121l-4.939 4.939h14.379c0.828 0 1.5 0.672 1.5 1.5s-0.672 1.5-1.5 1.5h-14.379l4.939 4.939c0.293 0.293 0.439 0.677 0.439 1.061s-0.146 0.768-0.439 1.061c-0.586 0.586-1.536 0.586-2.121 0z"></path> 
</symbol>
</defs>
</svg>
