<svg aria-hidden="true" style="position: absolute; width: 0; height: 0; overflow: hidden;" version="1.1" xmlns="http://www.w3.org/2000/svg" xmlns:xlink="http://www.w3.org/1999/xlink">
<defs>
<symbol id="arrow-right" viewBox="0 0 24 24">
<path d="M14.561 20.561l7.5-7.5c0.586-0.586 0.586-1.536 0-2.121l-7.5-7.5c-0.586-0.586-1.536-0.586-2.121 0s-0.586 1.536 0 2.121l4.939 4.939h-14.379c-0.828 0-1.5 0.672-1.5 1.5s0.672 1.5 1.5 1.5h14.379l-4.939 4.939c-0.293 0.293-0.439 0.677-0.439 1.061s0.146 0.768 0.439 1.061c0.586 0.586 1.536 0.586 2.121 0z"></path>
</symbol>
<symbol id="arrow-left" viewBox="0 0 24 24">
<path d="M9.439 20.561l-7.5-7.5c-0.586-0.586-0.586-1.536 0-2.121l7.5-7.5c0.586-0.586 1.536-0.586 2.121 0s0.586 1.536 0 2.121l-4.939 4.939h14.379c0.828 0 1.5 0.672 1.5 1.5s-0.672 1.5-1.5 1.5h-14.379l4.939 4.939c0.293 0.293 0.439 0.677 0.439 1.061s-0.146 0.768-0.439 1.061c-0.586 0.586-1.536 0.586-2.121 0z"></path>
</symbol>
</defs>
</svg>